<mxfile host="app.diagrams.net" modified="2023-07-18T16:26:09.285Z" agent="Mozilla/5.0 (Windows NT 10.0; Win64; x64) AppleWebKit/537.36 (KHTML, like Gecko) Chrome/114.0.0.0 Safari/537.36" version="21.6.2" etag="n4w3W5hu6y3ah5svNyDc" type="github">
  <diagram name="Page-1" id="8vQXLNf-ef1lwaRqN3sL">
    <mxGraphModel>
      <root>
        <mxCell id="0" />
        <mxCell id="1" parent="0" />
      </root>
    </mxGraphModel>
  </diagram>
</mxfile>
